<svg version="1.1" id="Layer_1" xmlns="http://www.w3.org/2000/svg" xmlns:xlink="http://www.w3.org/1999/xlink" x="0px" y="0px"
	 width="100%" viewBox="0 0 400 400" enable-background="new 0 0 400 400" xml:space="preserve">
<path fill="#FEFEFF" opacity="1.000000" stroke="none" 
	d="
M234.000000,401.000000 
	C156.000000,401.000000 78.500000,401.000000 1.000000,401.000000 
	C1.000000,267.666656 1.000000,134.333328 1.000000,1.000000 
	C134.333328,1.000000 267.666656,1.000000 401.000000,1.000000 
	C401.000000,134.333328 401.000000,267.666656 401.000000,401.000000 
	C345.500000,401.000000 290.000000,401.000000 234.000000,401.000000 
M236.247086,220.726700 
	C240.987701,221.495941 245.762161,222.101715 250.460495,223.075043 
	C256.581940,224.343201 258.148621,227.035736 256.695892,233.077438 
	C256.098297,235.562729 255.495117,238.046677 254.715668,241.270981 
	C261.339722,240.880692 263.708160,236.615311 265.209015,232.480179 
	C267.397125,226.451523 270.957306,223.263123 277.420471,222.753799 
	C281.069061,222.466278 283.967804,220.787552 283.927002,216.120819 
	C283.884857,211.307831 280.934113,209.789001 277.067322,209.123306 
	C266.645905,207.329163 256.245300,207.501205 245.944107,208.891708 
	C245.988968,205.994965 246.882812,202.779205 245.934494,200.255676 
	C241.373764,188.119247 236.578827,176.052902 231.319977,164.204483 
	C228.803467,158.534653 225.073166,153.403564 221.482773,147.500580 
	C215.319489,138.200638 207.052551,133.433273 195.507797,134.043564 
	C181.237534,134.797913 166.681198,145.994812 163.291534,159.678452 
	C162.251556,163.876663 163.881973,167.070114 167.284409,166.320740 
	C172.740250,165.119110 177.088287,166.270889 181.395157,169.592346 
	C182.984756,170.818237 185.414871,171.246368 187.517410,171.443512 
	C190.355835,171.709656 193.248108,171.401703 196.117264,171.340103 
	C192.360458,167.616364 188.444595,165.503403 185.312225,162.557388 
	C183.944443,161.270966 183.097610,157.757950 183.871140,156.148697 
	C187.825089,147.923141 199.548309,145.025757 207.122955,149.955414 
	C213.420319,154.053802 214.252457,159.074158 209.626984,164.958572 
	C209.097794,165.631775 208.654205,166.372284 207.426895,168.173615 
	C210.016006,167.480621 211.378311,167.115997 213.504044,166.921295 
	C215.970856,169.333618 219.255722,171.330551 220.735229,174.244217 
	C223.874084,180.425766 226.412598,186.974121 228.563095,193.578568 
	C230.822235,200.516541 234.953369,207.076813 233.262772,215.031265 
	C232.953766,216.485245 234.864319,218.410980 236.247086,220.726700 
M241.994034,328.776917 
	C243.476318,332.468048 244.257507,336.710815 246.618011,339.710999 
	C249.580521,343.476288 253.642624,346.509766 257.653595,349.236176 
	C258.867584,350.061432 261.989746,349.483856 263.387604,348.425690 
	C288.470245,329.438049 311.359161,308.196198 329.896271,282.584930 
	C353.227539,250.349930 367.172241,214.614029 367.849304,174.613098 
	C368.534546,134.128952 367.967804,93.624107 368.065155,53.128601 
	C368.072601,50.037350 367.450745,48.335926 364.176636,47.444279 
	C348.140991,43.077251 332.329315,37.770882 316.143982,34.092377 
	C267.772400,23.098770 218.710236,20.158728 169.235275,22.807211 
	C124.455307,25.204367 80.688782,32.827332 38.168953,47.299973 
	C34.954517,48.394081 33.891693,49.760319 33.905548,53.232445 
	C34.055832,90.895309 34.144794,128.559769 33.941170,166.222137 
	C33.831226,186.557220 36.451500,206.457123 43.086880,225.630142 
	C47.278271,237.741241 52.722137,249.418869 57.876812,261.953796 
	C61.328510,253.751205 63.909153,246.795517 67.135216,240.153305 
	C71.508133,231.149765 73.262634,221.894577 71.226311,212.066025 
	C68.726433,200.000046 67.660294,188.201691 73.161201,176.424118 
	C81.095795,159.435944 90.868217,143.656555 102.405823,128.931396 
	C103.367363,127.704201 104.691292,126.760948 105.860367,125.673203 
	C106.816025,126.457840 107.287651,126.931747 107.838654,127.280075 
	C109.127960,128.095093 110.455338,128.849915 111.767296,129.629105 
	C111.929482,127.988937 112.379433,126.317360 112.204445,124.713989 
	C111.412476,117.457382 110.444969,110.219910 109.538750,102.975792 
	C107.898468,89.863922 114.284767,80.675758 124.100159,73.154747 
	C130.380783,68.342239 134.939972,68.412888 140.381104,74.097275 
	C145.209305,79.141289 149.419540,84.780724 154.299683,89.768806 
	C155.869385,91.373222 158.674423,92.455856 160.962418,92.545158 
	C168.594849,92.843086 176.273575,92.167007 183.890289,92.615685 
	C204.495392,93.829445 225.136429,95.104286 244.382294,103.809143 
	C245.021088,104.098068 245.904663,103.845795 245.713272,103.845795 
	C246.530594,101.096260 246.559326,97.632675 247.914322,96.997238 
	C255.692993,93.349388 263.686798,90.082718 271.815491,87.292168 
	C275.766907,85.935677 279.811920,87.008377 282.388306,90.894165 
	C286.433502,96.995209 289.648102,103.633957 288.193512,111.024590 
	C286.780640,118.203461 284.082245,125.129311 281.759857,132.787888 
	C283.883301,135.466797 286.858795,139.036621 289.627411,142.760269 
	C293.051605,147.365662 291.770264,152.259918 289.972290,157.015121 
	C289.656921,157.849213 288.304291,158.291107 287.430695,158.914139 
	C286.905243,157.975006 286.130249,157.091064 285.907623,156.084930 
	C285.479553,154.150391 285.556854,152.099518 285.087067,150.179474 
	C282.704376,140.441681 272.905334,134.970810 263.435852,137.997864 
	C255.028931,140.685226 251.580414,148.346725 255.417297,156.097580 
	C257.406952,160.116882 259.547546,164.070328 261.803467,167.946716 
	C264.753418,173.015625 271.283966,173.762939 275.923615,169.699463 
	C268.948822,167.905289 267.638885,166.851883 264.272766,160.330109 
	C260.855560,153.709396 263.137909,150.003983 270.787872,149.752731 
	C277.764923,149.523575 281.983154,154.195633 281.035065,161.210831 
	C280.797485,162.968781 280.253204,164.685287 279.771881,166.756454 
	C284.590393,167.905670 289.133789,169.225067 290.035706,175.544327 
	C290.045013,181.503784 286.599274,184.890305 281.548340,187.234573 
	C278.007294,188.878036 274.792572,191.279251 277.164490,195.656921 
	C280.926880,202.600876 285.230621,209.251495 289.337494,216.761017 
	C290.441071,222.889374 292.487579,229.024872 292.441345,235.144547 
	C292.358765,246.071869 284.531555,253.455002 278.092102,261.203461 
	C277.042297,262.466736 274.169434,262.797974 272.221039,262.626984 
	C265.107330,262.002808 260.163452,258.568726 258.393524,251.177032 
	C258.029755,249.657852 256.369324,248.449173 255.306549,247.097366 
	C253.917419,248.193619 252.451233,249.206406 251.155106,250.403366 
	C248.392151,252.954880 246.102142,257.146332 242.937958,257.934601 
	C231.106262,260.882050 219.000229,262.728241 206.589264,264.420837 
	C205.411484,262.301178 203.176880,260.141418 203.255447,258.069397 
	C203.484879,252.017960 204.563751,245.990601 205.452972,239.975006 
	C206.098770,235.606110 208.316162,230.984024 207.461639,226.981018 
	C205.740417,218.918091 202.496460,211.166565 199.696213,203.352692 
	C197.962067,198.513763 194.048935,195.881882 189.202637,195.141327 
	C176.748383,193.238159 164.274918,191.393723 151.757050,189.990433 
	C134.985199,188.110245 128.501129,182.870712 123.590126,166.476349 
	C122.639992,163.304504 121.560677,160.111221 120.022484,157.201935 
	C119.292587,155.821442 117.197464,154.119400 115.980522,154.301224 
	C114.423889,154.533783 112.327309,156.291290 111.895721,157.801056 
	C111.099182,160.587448 111.062149,163.686249 111.209892,166.629715 
	C111.683800,176.071365 112.475632,185.496841 112.972603,194.937622 
	C113.354446,202.191406 111.081993,208.692612 106.687950,214.446899 
	C103.863853,218.145248 101.054115,221.858627 98.106956,225.458023 
	C93.358330,231.257599 89.726334,237.480835 90.138542,245.310104 
	C90.339073,249.118958 90.501251,252.951035 91.062798,256.715607 
	C92.572861,266.838989 94.288544,276.931702 96.016602,287.937103 
	C95.605522,301.983154 100.177528,313.994629 110.281837,323.933533 
	C137.196671,350.407776 168.575363,370.719757 201.536392,389.753754 
	C213.586334,382.140778 225.695557,374.617889 237.601120,366.785461 
	C238.894196,365.934814 239.630035,363.271454 239.560822,361.490204 
	C239.317673,355.231812 237.970215,348.959351 238.281219,342.754364 
	C238.529587,337.798492 240.582642,332.933136 241.994034,328.776917 
M134.875946,86.654366 
	C130.477600,79.250656 127.336891,78.793846 122.887901,84.910728 
	C115.324432,95.309639 118.116638,122.259109 127.570488,131.014069 
	C130.872864,134.072311 133.180496,132.115692 135.703751,129.927979 
	C139.705429,126.458412 143.605728,122.817963 147.925491,119.786392 
	C151.359924,117.376129 151.392014,115.210793 149.398407,111.905869 
	C144.509476,103.801147 139.877808,95.541237 134.875946,86.654366 
M282.222565,109.928429 
	C281.647186,106.407776 281.413177,102.783875 280.389465,99.398804 
	C279.555267,96.640320 277.174072,95.852455 275.047638,98.235588 
	C270.754456,103.047012 266.593018,107.990097 262.665894,113.100685 
	C261.982178,113.990463 262.120239,116.682068 262.891541,117.323364 
	C266.909302,120.663933 271.254547,123.610626 276.478607,127.417961 
	C278.476227,121.547783 280.313782,116.147934 282.222565,109.928429 
z"/>
<path fill="#1F417D" opacity="1.000000" stroke="none" 
	d="
M200.838547,389.828979 
	C168.575363,370.719757 137.196671,350.407776 110.281837,323.933533 
	C100.177528,313.994629 95.605522,301.983154 96.078575,287.047058 
	C95.828270,272.775452 98.755753,260.594269 108.007195,250.234833 
	C114.650917,242.795425 119.109993,234.186188 119.404716,223.773270 
	C119.529503,219.364471 120.620316,214.983002 121.272064,210.589111 
	C121.972687,210.504013 122.673317,210.418915 123.373940,210.333801 
	C124.941162,213.668869 126.807068,216.900192 128.009384,220.361984 
	C130.095093,226.367371 134.136612,230.050247 140.050400,231.991898 
	C146.509888,234.112701 152.934967,236.338150 159.380722,238.501068 
	C172.049866,242.752335 173.609787,241.656845 175.064957,228.134140 
	C175.334915,225.625427 176.445221,223.207153 177.167694,220.747131 
	C177.904221,220.837891 178.640762,220.928665 179.377289,221.019424 
	C179.643890,223.978149 180.228180,226.948273 180.122574,229.893646 
	C179.642578,243.280151 186.288452,253.125595 196.065247,261.034363 
	C198.912155,263.337311 203.310089,263.722931 206.997070,264.987427 
	C219.000229,262.728241 231.106262,260.882050 242.937958,257.934601 
	C246.102142,257.146332 248.392151,252.954880 251.155106,250.403366 
	C252.451233,249.206406 253.917419,248.193619 255.306549,247.097366 
	C256.369324,248.449173 258.029755,249.657852 258.393524,251.177032 
	C260.163452,258.568726 265.107330,262.002808 272.221039,262.626984 
	C274.169434,262.797974 277.042297,262.466736 278.092102,261.203461 
	C284.531555,253.455002 292.358765,246.071869 292.441345,235.144547 
	C292.487579,229.024872 290.441071,222.889374 289.553650,216.102295 
	C290.784607,211.298553 291.822876,207.159119 292.809601,203.007431 
	C295.115814,193.303696 295.122345,183.799988 290.255859,174.740616 
	C289.133789,169.225067 284.590393,167.905670 279.771881,166.756454 
	C280.253204,164.685287 280.797485,162.968781 281.035065,161.210831 
	C281.983154,154.195633 277.764923,149.523575 270.787872,149.752731 
	C263.137909,150.003983 260.855560,153.709396 264.272766,160.330109 
	C267.638885,166.851883 268.948822,167.905289 275.923615,169.699463 
	C271.283966,173.762939 264.753418,173.015625 261.803467,167.946716 
	C259.547546,164.070328 257.406952,160.116882 255.417297,156.097580 
	C251.580414,148.346725 255.028931,140.685226 263.435852,137.997864 
	C272.905334,134.970810 282.704376,140.441681 285.087067,150.179474 
	C285.556854,152.099518 285.479553,154.150391 285.907623,156.084930 
	C286.130249,157.091064 286.905243,157.975006 287.430695,158.914139 
	C288.304291,158.291107 289.656921,157.849213 289.972290,157.015121 
	C291.770264,152.259918 293.051605,147.365662 289.627411,142.760269 
	C286.858795,139.036621 283.883301,135.466797 281.759857,132.787888 
	C284.082245,125.129311 286.780640,118.203461 288.193512,111.024590 
	C289.648102,103.633957 286.433502,96.995209 282.388306,90.894165 
	C279.811920,87.008377 275.766907,85.935677 271.815491,87.292168 
	C263.686798,90.082718 255.692993,93.349388 247.914322,96.997238 
	C246.559326,97.632675 246.530594,101.096260 245.713272,103.845795 
	C245.904663,103.845795 245.021088,104.098068 244.382294,103.809143 
	C225.136429,95.104286 204.495392,93.829445 183.890289,92.615685 
	C176.273575,92.167007 168.594849,92.843086 160.962418,92.545158 
	C158.674423,92.455856 155.869385,91.373222 154.299683,89.768806 
	C149.419540,84.780724 145.209305,79.141289 140.381104,74.097275 
	C134.939972,68.412888 130.380783,68.342239 124.100159,73.154747 
	C114.284767,80.675758 107.898468,89.863922 109.538750,102.975792 
	C110.444969,110.219910 111.412476,117.457382 112.204445,124.713989 
	C112.379433,126.317360 111.929482,127.988937 111.767296,129.629105 
	C110.455338,128.849915 109.127960,128.095093 107.838654,127.280075 
	C107.287651,126.931747 106.816025,126.457840 105.860367,125.673203 
	C104.691292,126.760948 103.367363,127.704201 102.405823,128.931396 
	C90.868217,143.656555 81.095795,159.435944 73.161201,176.424118 
	C67.660294,188.201691 68.726433,200.000046 71.226311,212.066025 
	C73.262634,221.894577 71.508133,231.149765 67.135216,240.153305 
	C63.909153,246.795517 61.328510,253.751205 57.876812,261.953796 
	C52.722137,249.418869 47.278271,237.741241 43.086880,225.630142 
	C36.451500,206.457123 33.831226,186.557220 33.941170,166.222137 
	C34.144794,128.559769 34.055832,90.895309 33.905548,53.232445 
	C33.891693,49.760319 34.954517,48.394081 38.168953,47.299973 
	C80.688782,32.827332 124.455307,25.204367 169.235275,22.807211 
	C218.710236,20.158728 267.772400,23.098770 316.143982,34.092377 
	C332.329315,37.770882 348.140991,43.077251 364.176636,47.444279 
	C367.450745,48.335926 368.072601,50.037350 368.065155,53.128601 
	C367.967804,93.624107 368.534546,134.128952 367.849304,174.613098 
	C367.172241,214.614029 353.227539,250.349930 329.896271,282.584930 
	C311.359161,308.196198 288.470245,329.438049 263.387604,348.425690 
	C261.989746,349.483856 258.867584,350.061432 257.653595,349.236176 
	C253.642624,346.509766 249.580521,343.476288 246.618011,339.710999 
	C244.257507,336.710815 243.476318,332.468048 241.953644,328.003784 
	C241.448288,324.859467 240.983322,322.488281 240.293213,318.968933 
	C237.883041,320.550903 235.815323,321.476257 234.310730,322.969147 
	C227.120285,330.103851 219.956512,337.274292 213.028229,344.661743 
	C206.887161,351.209747 202.618607,358.841522 201.940399,368.003052 
	C201.402756,375.265747 201.193573,382.552765 200.838547,389.828979 
M240.461639,286.167633 
	C242.958069,286.095001 245.464767,286.141357 247.948990,285.927094 
	C254.863800,285.330719 260.864868,282.781586 265.218597,277.166046 
	C268.600342,272.804169 267.799164,270.003998 262.714935,268.003113 
	C261.486328,267.519592 260.188568,267.091125 258.886688,266.933014 
	C243.671967,265.084808 229.092484,267.900421 214.973007,273.366516 
	C213.290436,274.017914 211.072983,276.433380 211.200546,277.841095 
	C211.370880,279.720673 213.343460,281.717468 215.013214,283.091278 
	C216.335007,284.178802 218.332901,284.790222 220.088760,284.942688 
	C226.537292,285.502472 233.010086,285.782654 240.461639,286.167633 
z"/>
<path fill="#97BEE6" opacity="1.000000" stroke="none" 
	d="
M206.793167,264.704163 
	C203.310089,263.722931 198.912155,263.337311 196.065247,261.034363 
	C186.288452,253.125595 179.642578,243.280151 180.122574,229.893646 
	C180.228180,226.948273 179.643890,223.978149 179.377289,221.019424 
	C178.640762,220.928665 177.904221,220.837891 177.167694,220.747131 
	C176.445221,223.207153 175.334915,225.625427 175.064957,228.134140 
	C173.609787,241.656845 172.049866,242.752335 159.380722,238.501068 
	C152.934967,236.338150 146.509888,234.112701 140.050400,231.991898 
	C134.136612,230.050247 130.095093,226.367371 128.009384,220.361984 
	C126.807068,216.900192 124.941162,213.668869 123.373940,210.333801 
	C122.673317,210.418915 121.972687,210.504013 121.272064,210.589111 
	C120.620316,214.983002 119.529503,219.364471 119.404716,223.773270 
	C119.109993,234.186188 114.650917,242.795425 108.007195,250.234833 
	C98.755753,260.594269 95.828270,272.775452 96.031570,286.596802 
	C94.288544,276.931702 92.572861,266.838989 91.062798,256.715607 
	C90.501251,252.951035 90.339073,249.118958 90.138542,245.310104 
	C89.726334,237.480835 93.358330,231.257599 98.106956,225.458023 
	C101.054115,221.858627 103.863853,218.145248 106.687950,214.446899 
	C111.081993,208.692612 113.354446,202.191406 112.972603,194.937622 
	C112.475632,185.496841 111.683800,176.071365 111.209892,166.629715 
	C111.062149,163.686249 111.099182,160.587448 111.895721,157.801056 
	C112.327309,156.291290 114.423889,154.533783 115.980522,154.301224 
	C117.197464,154.119400 119.292587,155.821442 120.022484,157.201935 
	C121.560677,160.111221 122.639992,163.304504 123.590126,166.476349 
	C128.501129,182.870712 134.985199,188.110245 151.757050,189.990433 
	C164.274918,191.393723 176.748383,193.238159 189.202637,195.141327 
	C194.048935,195.881882 197.962067,198.513763 199.696213,203.352692 
	C202.496460,211.166565 205.740417,218.918091 207.461639,226.981018 
	C208.316162,230.984024 206.098770,235.606110 205.452972,239.975006 
	C204.563751,245.990601 203.484879,252.017960 203.255447,258.069397 
	C203.176880,260.141418 205.411484,262.301178 206.793167,264.704163 
z"/>
<path fill="#97BEE6" opacity="1.000000" stroke="none" 
	d="
M201.187469,389.791382 
	C201.193573,382.552765 201.402756,375.265747 201.940399,368.003052 
	C202.618607,358.841522 206.887161,351.209747 213.028229,344.661743 
	C219.956512,337.274292 227.120285,330.103851 234.310730,322.969147 
	C235.815323,321.476257 237.883041,320.550903 240.293213,318.968933 
	C240.983322,322.488281 241.448288,324.859467 241.873962,327.629150 
	C240.582642,332.933136 238.529587,337.798492 238.281219,342.754364 
	C237.970215,348.959351 239.317673,355.231812 239.560822,361.490204 
	C239.630035,363.271454 238.894196,365.934814 237.601120,366.785461 
	C225.695557,374.617889 213.586334,382.140778 201.187469,389.791382 
z"/>
<path fill="#244580" opacity="1.000000" stroke="none" 
	d="
M212.740616,166.751373 
	C211.378311,167.115997 210.016006,167.480621 207.426895,168.173615 
	C208.654205,166.372284 209.097794,165.631775 209.626984,164.958572 
	C214.252457,159.074158 213.420319,154.053802 207.122955,149.955414 
	C199.548309,145.025757 187.825089,147.923141 183.871140,156.148697 
	C183.097610,157.757950 183.944443,161.270966 185.312225,162.557388 
	C188.444595,165.503403 192.360458,167.616364 196.117264,171.340103 
	C193.248108,171.401703 190.355835,171.709656 187.517410,171.443512 
	C185.414871,171.246368 182.984756,170.818237 181.395157,169.592346 
	C177.088287,166.270889 172.740250,165.119110 167.284409,166.320740 
	C163.881973,167.070114 162.251556,163.876663 163.291534,159.678452 
	C166.681198,145.994812 181.237534,134.797913 195.507797,134.043564 
	C207.052551,133.433273 215.319489,138.200638 221.660934,148.194580 
	C222.646820,156.799026 218.737198,162.306702 212.740616,166.751373 
z"/>
<path fill="#21437F" opacity="1.000000" stroke="none" 
	d="
M135.009277,86.999069 
	C139.877808,95.541237 144.509476,103.801147 149.398407,111.905869 
	C151.392014,115.210793 151.359924,117.376129 147.925491,119.786392 
	C143.605728,122.817963 139.705429,126.458412 135.703751,129.927979 
	C133.180496,132.115692 130.872864,134.072311 127.570488,131.014069 
	C118.116638,122.259109 115.324432,95.309639 122.887901,84.910728 
	C127.336891,78.793846 130.477600,79.250656 135.009277,86.999069 
z"/>
<path fill="#98BFE6" opacity="1.000000" stroke="none" 
	d="
M213.122330,166.836334 
	C218.737198,162.306702 222.646820,156.799026 221.865845,148.458527 
	C225.073166,153.403564 228.803467,158.534653 231.319977,164.204483 
	C236.578827,176.052902 241.373764,188.119247 245.934494,200.255676 
	C246.882812,202.779205 245.988968,205.994965 245.658630,209.489975 
	C240.498001,211.832062 237.175919,215.065826 235.750305,220.118942 
	C234.864319,218.410980 232.953766,216.485245 233.262772,215.031265 
	C234.953369,207.076813 230.822235,200.516541 228.563095,193.578568 
	C226.412598,186.974121 223.874084,180.425766 220.735229,174.244217 
	C219.255722,171.330551 215.970856,169.333618 213.122330,166.836334 
z"/>
<path fill="#23447F" opacity="1.000000" stroke="none" 
	d="
M235.998688,220.422821 
	C237.175919,215.065826 240.498001,211.832062 245.636719,209.937561 
	C256.245300,207.501205 266.645905,207.329163 277.067322,209.123306 
	C280.934113,209.789001 283.884857,211.307831 283.927002,216.120819 
	C283.967804,220.787552 281.069061,222.466278 277.420471,222.753799 
	C270.957306,223.263123 267.397125,226.451523 265.209015,232.480179 
	C263.708160,236.615311 261.339722,240.880692 254.715668,241.270981 
	C255.495117,238.046677 256.098297,235.562729 256.695892,233.077438 
	C258.148621,227.035736 256.581940,224.343201 250.460495,223.075043 
	C245.762161,222.101715 240.987701,221.495941 235.998688,220.422821 
z"/>
<path fill="#97BDE5" opacity="1.000000" stroke="none" 
	d="
M290.145782,175.142471 
	C295.122345,183.799988 295.115814,193.303696 292.809601,203.007431 
	C291.822876,207.159119 290.784607,211.298553 289.537537,215.734894 
	C285.230621,209.251495 280.926880,202.600876 277.164490,195.656921 
	C274.792572,191.279251 278.007294,188.878036 281.548340,187.234573 
	C286.599274,184.890305 290.045013,181.503784 290.145782,175.142471 
z"/>
<path fill="#244580" opacity="1.000000" stroke="none" 
	d="
M282.186951,110.338257 
	C280.313782,116.147934 278.476227,121.547783 276.478607,127.417961 
	C271.254547,123.610626 266.909302,120.663933 262.891541,117.323364 
	C262.120239,116.682068 261.982178,113.990463 262.665894,113.100685 
	C266.593018,107.990097 270.754456,103.047012 275.047638,98.235588 
	C277.174072,95.852455 279.555267,96.640320 280.389465,99.398804 
	C281.413177,102.783875 281.647186,106.407776 282.186951,110.338257 
z"/>
<path fill="#FCFCFD" opacity="1.000000" stroke="none" 
	d="
M239.967697,286.167847 
	C233.010086,285.782654 226.537292,285.502472 220.088760,284.942688 
	C218.332901,284.790222 216.335007,284.178802 215.013214,283.091278 
	C213.343460,281.717468 211.370880,279.720673 211.200546,277.841095 
	C211.072983,276.433380 213.290436,274.017914 214.973007,273.366516 
	C229.092484,267.900421 243.671967,265.084808 258.886688,266.933014 
	C260.188568,267.091125 261.486328,267.519592 262.714935,268.003113 
	C267.799164,270.003998 268.600342,272.804169 265.218597,277.166046 
	C260.864868,282.781586 254.863800,285.330719 247.948990,285.927094 
	C245.464767,286.141357 242.958069,286.095001 239.967697,286.167847 
z"/>
</svg>